<svg width="67" height="67" viewBox="0 0 67 67" fill="none" xmlns="http://www.w3.org/2000/svg">
<path d="M33.5 47.4585C34.291 47.4585 34.9545 47.1905 35.4905 46.6545C36.0265 46.1185 36.2936 45.4559 36.2917 44.6668C36.2917 43.8759 36.0237 43.2124 35.4877 42.6764C34.9517 42.1404 34.2892 41.8733 33.5 41.8752C32.7091 41.8752 32.0456 42.1432 31.5096 42.6792C30.9736 43.2152 30.7065 43.8777 30.7084 44.6668C30.7084 45.4578 30.9764 46.1213 31.5124 46.6573C32.0484 47.1933 32.7109 47.4604 33.5 47.4585ZM33.5 36.2918C34.291 36.2918 34.9545 36.0238 35.4905 35.4878C36.0265 34.9518 36.2936 34.2893 36.2917 33.5002V22.3335C36.2917 21.5425 36.0237 20.879 35.4877 20.343C34.9517 19.807 34.2892 19.54 33.5 19.5418C32.7091 19.5418 32.0456 19.8098 31.5096 20.3458C30.9736 20.8818 30.7065 21.5444 30.7084 22.3335V33.5002C30.7084 34.2911 30.9764 34.9546 31.5124 35.4906C32.0484 36.0266 32.7109 36.2937 33.5 36.2918ZM33.5 61.4168C29.6382 61.4168 26.0091 60.6836 22.6125 59.217C19.216 57.7504 16.2615 55.7618 13.749 53.2512C11.2365 50.7387 9.2479 47.7842 7.78321 44.3877C6.31851 40.9911 5.58524 37.362 5.58337 33.5002C5.58337 29.6384 6.31665 26.0092 7.78321 22.6127C9.24976 19.2161 11.2384 16.2616 13.749 13.7491C16.2615 11.2366 19.216 9.24802 22.6125 7.78333C26.0091 6.31864 29.6382 5.58536 33.5 5.5835C37.3618 5.5835 40.991 6.31677 44.3875 7.78333C47.7841 9.24989 50.7386 11.2385 53.2511 13.7491C55.7636 16.2616 57.7531 19.2161 59.2197 22.6127C60.6862 26.0092 61.4186 29.6384 61.4167 33.5002C61.4167 37.362 60.6834 40.9911 59.2169 44.3877C57.7503 47.7842 55.7617 50.7387 53.2511 53.2512C50.7386 55.7637 47.7841 57.7532 44.3875 59.2198C40.991 60.6863 37.3618 61.4187 33.5 61.4168ZM33.5 55.8335C39.7348 55.8335 45.0157 53.67 49.3427 49.3429C53.6698 45.0158 55.8334 39.7349 55.8334 33.5002C55.8334 27.2654 53.6698 21.9845 49.3427 17.6575C45.0157 13.3304 39.7348 11.1668 33.5 11.1668C27.2653 11.1668 21.9844 13.3304 17.6573 17.6575C13.3302 21.9845 11.1667 27.2654 11.1667 33.5002C11.1667 39.7349 13.3302 45.0158 17.6573 49.3429C21.9844 53.67 27.2653 55.8335 33.5 55.8335Z" fill="white"/>
</svg>
