<svg width="390" height="443" viewBox="0 0 390 443" fill="none" xmlns="http://www.w3.org/2000/svg">
<rect width="390" height="443" fill="#C33C54"/>
<path d="M165.181 152.155H169.637C169.637 152.155 170.379 150.344 167.99 149.603C165.601 148.861 162.373 147.492 161.328 144.01C161.328 144.01 160.957 143.778 159.866 140.296C159.866 140.296 159.703 139.39 160.469 138.695L163.139 135.772C163.139 135.772 163.556 134.913 165.413 135.052L172.792 135.035C172.792 135.035 174.093 135.144 175.23 136.164C175.23 136.164 178.759 138.902 179.429 139.925C179.429 139.925 179.779 140.598 179.244 141.874L177.48 146.423C177.48 146.423 175.808 147.77 174.207 148.395C174.207 148.395 170.796 149.903 171.052 151.04C171.052 151.04 170.889 151.874 171.423 152.155L181.775 152.294C181.775 152.294 185.058 151.724 186.364 149.393C186.364 149.393 187.182 148.61 186.729 143.074C186.277 137.539 186.348 127.46 186.348 127.46C186.348 127.46 185.56 126.811 189.923 124.024C189.923 124.024 192.568 121.981 193.683 122.167C193.683 122.167 195.412 121.193 196.178 119.126L197.326 116.179C197.326 116.179 190.654 116.143 190.457 119.115L186.119 124.905L183.264 120.517C183.264 120.517 182.914 119.936 181.685 119.925L176.231 119.983C176.231 119.983 174.687 120.204 171.44 124.681L172.113 119.11C172.113 119.11 172.427 117.695 170.548 117.31L167.112 115.952C167.112 115.952 166.916 120.629 169.015 122.254C169.015 122.254 170.302 123.217 170.78 123.309L167.728 127.869L163.319 134.599C163.319 134.599 159.836 126.186 159.733 125.456C159.733 125.456 158.478 120.443 158.121 118.134C157.761 115.824 158.318 112.252 158.318 112.252C158.318 112.252 160.916 97.4691 176.094 91.3417C176.094 91.3417 207.751 91.0635 208.632 91.5735C209.513 92.0834 210.397 93.0133 210.397 93.0133L219.725 84.658C219.725 84.658 224.969 80.5266 230.123 85.307C235.277 90.0873 231.934 96.7246 231.934 96.7246C231.934 96.7246 230.257 100.447 223.712 103.558C223.712 103.558 232.67 111.96 229.608 127.092C226.545 142.223 221.16 149.185 221.16 149.185C221.16 149.185 209.278 166.73 188.112 178.055C188.112 178.055 177.529 169.7 175.486 164.132L184.305 164.039C184.305 164.039 209.276 144.451 211.692 129.227C211.692 129.227 215.962 114.095 214.012 110.103C214.012 110.103 210.02 134.424 199.715 144.637C199.715 144.637 186.997 160.325 182.634 160.974L174.488 161.02C174.488 161.02 173.258 161.02 172.282 159.766C172.282 159.766 166.504 154.917 165.181 152.155Z" fill="white"/>
<path d="M163.818 101.26C163.818 101.26 170.788 93.3706 176.359 91.6226C176.359 91.6226 169.373 84.9553 163.818 87.9249C158.263 90.8945 163.818 101.26 163.818 101.26Z" fill="white"/>
<path d="M162.357 201.141C163.55 201.363 164.531 201.96 165.3 202.93C166.068 203.901 166.452 205.013 166.452 206.267C166.452 207.399 166.169 208.4 165.603 209.27C165.057 210.119 164.258 210.787 163.207 211.272C162.155 211.757 160.911 212 159.476 212H150.345V190.827H159.081C160.517 190.827 161.751 191.06 162.782 191.525C163.834 191.99 164.622 192.637 165.148 193.466C165.694 194.295 165.967 195.236 165.967 196.287C165.967 197.521 165.633 198.552 164.966 199.381C164.319 200.21 163.449 200.797 162.357 201.141ZM154.592 199.563H158.475C159.486 199.563 160.264 199.341 160.81 198.896C161.356 198.431 161.629 197.774 161.629 196.924C161.629 196.075 161.356 195.418 160.81 194.953C160.264 194.488 159.486 194.255 158.475 194.255H154.592V199.563ZM158.869 208.542C159.9 208.542 160.699 208.299 161.265 207.814C161.852 207.329 162.145 206.641 162.145 205.751C162.145 204.841 161.842 204.134 161.235 203.628C160.628 203.102 159.809 202.839 158.778 202.839H154.592V208.542H158.869ZM177.299 212.273C175.681 212.273 174.225 211.919 172.931 211.211C171.637 210.483 170.615 209.462 169.867 208.148C169.139 206.833 168.775 205.317 168.775 203.598C168.775 201.879 169.149 200.362 169.897 199.048C170.666 197.733 171.707 196.722 173.022 196.014C174.336 195.286 175.802 194.922 177.42 194.922C179.038 194.922 180.504 195.286 181.818 196.014C183.133 196.722 184.164 197.733 184.912 199.048C185.681 200.362 186.065 201.879 186.065 203.598C186.065 205.317 185.671 206.833 184.882 208.148C184.114 209.462 183.062 210.483 181.727 211.211C180.413 211.919 178.937 212.273 177.299 212.273ZM177.299 208.572C178.067 208.572 178.785 208.39 179.452 208.026C180.14 207.642 180.686 207.076 181.09 206.328C181.495 205.579 181.697 204.669 181.697 203.598C181.697 202 181.272 200.777 180.423 199.927C179.594 199.058 178.573 198.623 177.359 198.623C176.146 198.623 175.125 199.058 174.296 199.927C173.487 200.777 173.082 202 173.082 203.598C173.082 205.195 173.477 206.429 174.265 207.298C175.074 208.148 176.085 208.572 177.299 208.572ZM193.427 189.553V212H189.18V189.553H193.427ZM199.776 193.193C199.028 193.193 198.401 192.961 197.896 192.496C197.41 192.01 197.168 191.414 197.168 190.706C197.168 189.998 197.41 189.412 197.896 188.947C198.401 188.461 199.028 188.219 199.776 188.219C200.525 188.219 201.141 188.461 201.627 188.947C202.132 189.412 202.385 189.998 202.385 190.706C202.385 191.414 202.132 192.01 201.627 192.496C201.141 192.961 200.525 193.193 199.776 193.193ZM201.869 195.195V212H197.623V195.195H201.869ZM215.377 194.953C217.379 194.953 218.997 195.59 220.231 196.864C221.464 198.117 222.081 199.877 222.081 202.142V212H217.834V202.718C217.834 201.383 217.501 200.362 216.833 199.654C216.166 198.926 215.256 198.562 214.103 198.562C212.93 198.562 212 198.926 211.313 199.654C210.645 200.362 210.312 201.383 210.312 202.718V212H206.065V195.195H210.312V197.288C210.878 196.56 211.596 195.994 212.465 195.59C213.355 195.165 214.326 194.953 215.377 194.953ZM241.741 203.234C241.741 203.84 241.701 204.386 241.62 204.872H229.335C229.436 206.085 229.86 207.035 230.609 207.723C231.357 208.411 232.277 208.754 233.369 208.754C234.946 208.754 236.069 208.077 236.736 206.722H241.316C240.831 208.34 239.901 209.674 238.526 210.726C237.151 211.757 235.462 212.273 233.46 212.273C231.842 212.273 230.386 211.919 229.092 211.211C227.818 210.483 226.817 209.462 226.089 208.148C225.381 206.833 225.027 205.317 225.027 203.598C225.027 201.859 225.381 200.332 226.089 199.017C226.797 197.703 227.788 196.692 229.062 195.984C230.336 195.276 231.802 194.922 233.46 194.922C235.058 194.922 236.483 195.266 237.737 195.954C239.011 196.641 239.992 197.622 240.679 198.896C241.387 200.15 241.741 201.596 241.741 203.234ZM237.343 202.02C237.322 200.928 236.928 200.059 236.16 199.412C235.391 198.744 234.451 198.411 233.339 198.411C232.287 198.411 231.397 198.734 230.669 199.381C229.962 200.008 229.527 200.888 229.365 202.02H237.343Z" fill="white"/>
<path d="M28.2955 400V376.727H32.5114V396.466H42.7614V400H28.2955ZM53.8523 400.341C52.1477 400.341 50.6705 399.966 49.4205 399.216C48.1705 398.466 47.2008 397.417 46.5114 396.068C45.8295 394.72 45.4886 393.144 45.4886 391.341C45.4886 389.538 45.8295 387.958 46.5114 386.602C47.2008 385.246 48.1705 384.193 49.4205 383.443C50.6705 382.693 52.1477 382.318 53.8523 382.318C55.5568 382.318 57.0341 382.693 58.2841 383.443C59.5341 384.193 60.5 385.246 61.1818 386.602C61.8712 387.958 62.2159 389.538 62.2159 391.341C62.2159 393.144 61.8712 394.72 61.1818 396.068C60.5 397.417 59.5341 398.466 58.2841 399.216C57.0341 399.966 55.5568 400.341 53.8523 400.341ZM53.875 397.045C54.7992 397.045 55.572 396.792 56.1932 396.284C56.8144 395.769 57.2765 395.08 57.5795 394.216C57.8902 393.352 58.0455 392.39 58.0455 391.33C58.0455 390.261 57.8902 389.295 57.5795 388.432C57.2765 387.561 56.8144 386.867 56.1932 386.352C55.572 385.837 54.7992 385.58 53.875 385.58C52.928 385.58 52.1402 385.837 51.5114 386.352C50.8902 386.867 50.4242 387.561 50.1136 388.432C49.8106 389.295 49.6591 390.261 49.6591 391.33C49.6591 392.39 49.8106 393.352 50.1136 394.216C50.4242 395.08 50.8902 395.769 51.5114 396.284C52.1402 396.792 52.928 397.045 53.875 397.045ZM73.2983 406.909C71.821 406.909 70.5521 406.708 69.4915 406.307C68.4309 405.913 67.5786 405.383 66.9347 404.716C66.2907 404.049 65.8438 403.311 65.5938 402.5L69.2983 401.602C69.465 401.943 69.7074 402.28 70.0256 402.614C70.3438 402.955 70.7718 403.235 71.3097 403.455C71.8551 403.682 72.5407 403.795 73.3665 403.795C74.5331 403.795 75.4991 403.511 76.2642 402.943C77.0294 402.383 77.4119 401.458 77.4119 400.17V396.864H77.2074C76.9953 397.288 76.6847 397.723 76.2756 398.17C75.8741 398.617 75.34 398.992 74.6733 399.295C74.0142 399.598 73.1847 399.75 72.1847 399.75C70.8438 399.75 69.6278 399.436 68.5369 398.807C67.4536 398.17 66.59 397.223 65.946 395.966C65.3097 394.701 64.9915 393.117 64.9915 391.216C64.9915 389.299 65.3097 387.682 65.946 386.364C66.59 385.038 67.4574 384.034 68.5483 383.352C69.6392 382.663 70.8551 382.318 72.196 382.318C73.2188 382.318 74.0597 382.492 74.7188 382.841C75.3854 383.182 75.9157 383.595 76.3097 384.08C76.7036 384.557 77.0028 385.008 77.2074 385.432H77.4347V382.545H81.4915V400.284C81.4915 401.777 81.1354 403.011 80.4233 403.989C79.7112 404.966 78.7377 405.697 77.5028 406.182C76.268 406.667 74.8665 406.909 73.2983 406.909ZM73.3324 396.523C74.2036 396.523 74.946 396.311 75.5597 395.886C76.1733 395.462 76.6392 394.852 76.9574 394.057C77.2756 393.261 77.4347 392.307 77.4347 391.193C77.4347 390.095 77.2756 389.133 76.9574 388.307C76.6468 387.481 76.1847 386.841 75.571 386.386C74.965 385.924 74.2188 385.693 73.3324 385.693C72.4157 385.693 71.6506 385.932 71.0369 386.409C70.4233 386.886 69.9612 387.542 69.6506 388.375C69.34 389.201 69.1847 390.14 69.1847 391.193C69.1847 392.261 69.34 393.197 69.6506 394C69.9688 394.795 70.4347 395.417 71.0483 395.864C71.6695 396.303 72.4309 396.523 73.3324 396.523ZM93.6449 400V382.545H97.7585V400H93.6449ZM95.7131 380.068C95.0616 380.068 94.5009 379.852 94.0312 379.42C93.5616 378.981 93.3267 378.455 93.3267 377.841C93.3267 377.22 93.5616 376.693 94.0312 376.261C94.5009 375.822 95.0616 375.602 95.7131 375.602C96.3722 375.602 96.9328 375.822 97.3949 376.261C97.8646 376.693 98.0994 377.22 98.0994 377.841C98.0994 378.455 97.8646 378.981 97.3949 379.42C96.9328 379.852 96.3722 380.068 95.7131 380.068ZM106.102 389.773V400H101.989V382.545H105.92V385.511H106.125C106.527 384.534 107.167 383.758 108.045 383.182C108.932 382.606 110.027 382.318 111.33 382.318C112.534 382.318 113.583 382.576 114.477 383.091C115.379 383.606 116.076 384.352 116.568 385.33C117.068 386.307 117.314 387.492 117.307 388.886V400H113.193V389.523C113.193 388.356 112.89 387.443 112.284 386.784C111.686 386.125 110.856 385.795 109.795 385.795C109.076 385.795 108.436 385.955 107.875 386.273C107.322 386.583 106.886 387.034 106.568 387.625C106.258 388.216 106.102 388.932 106.102 389.773Z" fill="white"/>
</svg>
