<svg width="94" height="33" viewBox="0 0 94 33" fill="none" xmlns="http://www.w3.org/2000/svg">
<path d="M49.0098 15.9416C49.6755 16.0657 50.2227 16.3986 50.6514 16.9401C51.0801 17.4816 51.2944 18.1021 51.2944 18.8016C51.2944 19.4334 51.1365 19.9918 50.8206 20.4769C50.516 20.9508 50.0703 21.3231 49.4837 21.5939C48.897 21.8646 48.2032 22 47.4022 22H42.3084V10.1879H47.1822C47.9832 10.1879 48.6714 10.3176 49.2468 10.5771C49.8334 10.8366 50.2734 11.1976 50.5667 11.6602C50.8714 12.1227 51.0237 12.6473 51.0237 13.234C51.0237 13.9222 50.8375 14.4976 50.4652 14.9601C50.1042 15.4227 49.6191 15.7498 49.0098 15.9416ZM44.6776 15.0616H46.8437C47.4078 15.0616 47.8422 14.9375 48.1468 14.6893C48.4514 14.4299 48.6037 14.0632 48.6037 13.5894C48.6037 13.1155 48.4514 12.7489 48.1468 12.4894C47.8422 12.2299 47.4078 12.1002 46.8437 12.1002H44.6776V15.0616ZM47.0637 20.0708C47.6391 20.0708 48.0847 19.9354 48.4006 19.6647C48.7278 19.3939 48.8914 19.0103 48.8914 18.5139C48.8914 18.0062 48.7222 17.6114 48.3837 17.3293C48.0452 17.036 47.5883 16.8893 47.013 16.8893H44.6776V20.0708H47.0637ZM57.3457 22.1523C56.4431 22.1523 55.6308 21.9549 54.9088 21.56C54.1867 21.1539 53.617 20.5841 53.1996 19.8508C52.7934 19.1175 52.5903 18.2713 52.5903 17.3124C52.5903 16.3534 52.7991 15.5073 53.2165 14.774C53.6452 14.0406 54.2262 13.4765 54.9595 13.0817C55.6929 12.6755 56.5108 12.4725 57.4133 12.4725C58.3159 12.4725 59.1338 12.6755 59.8672 13.0817C60.6005 13.4765 61.1758 14.0406 61.5933 14.774C62.022 15.5073 62.2363 16.3534 62.2363 17.3124C62.2363 18.2713 62.0163 19.1175 61.5764 19.8508C61.1476 20.5841 60.561 21.1539 59.8164 21.56C59.0831 21.9549 58.2595 22.1523 57.3457 22.1523ZM57.3457 20.0877C57.7744 20.0877 58.1749 19.9862 58.5472 19.7831C58.9308 19.5688 59.2354 19.2529 59.461 18.8354C59.6866 18.418 59.7995 17.9103 59.7995 17.3124C59.7995 16.4211 59.5625 15.7386 59.0887 15.2647C58.6261 14.7796 58.0564 14.537 57.3795 14.537C56.7026 14.537 56.1329 14.7796 55.6703 15.2647C55.219 15.7386 54.9934 16.4211 54.9934 17.3124C54.9934 18.2036 55.2134 18.8918 55.6534 19.377C56.1046 19.8508 56.6687 20.0877 57.3457 20.0877ZM66.3434 9.47712V22H63.9742V9.47712H66.3434ZM69.8857 11.5079C69.4683 11.5079 69.1186 11.3781 68.8365 11.1186C68.5657 10.8479 68.4304 10.5151 68.4304 10.1202C68.4304 9.72532 68.5657 9.39815 68.8365 9.13867C69.1186 8.8679 69.4683 8.73252 69.8857 8.73252C70.3031 8.73252 70.6472 8.8679 70.918 9.13867C71.2001 9.39815 71.3411 9.72532 71.3411 10.1202C71.3411 10.5151 71.2001 10.8479 70.918 11.1186C70.6472 11.3781 70.3031 11.5079 69.8857 11.5079ZM71.0534 12.6248V22H68.6842V12.6248H71.0534ZM78.5895 12.4894C79.7064 12.4894 80.6089 12.8448 81.2971 13.5555C81.9853 14.255 82.3294 15.2365 82.3294 16.5001V22H79.9602V16.8216C79.9602 16.077 79.7741 15.5073 79.4018 15.1124C79.0295 14.7063 78.5218 14.5032 77.8787 14.5032C77.2244 14.5032 76.7054 14.7063 76.3218 15.1124C75.9495 15.5073 75.7634 16.077 75.7634 16.8216V22H73.3942V12.6248H75.7634V13.7924C76.0792 13.3863 76.4798 13.0704 76.9649 12.8448C77.4613 12.6078 78.0028 12.4894 78.5895 12.4894ZM93.2976 17.1093C93.2976 17.4478 93.2751 17.7524 93.2299 18.0231H86.3762C86.4326 18.7001 86.6695 19.2303 87.087 19.6139C87.5044 19.9975 88.0177 20.1893 88.6269 20.1893C89.5069 20.1893 90.1331 19.8113 90.5054 19.0554H93.0607C92.7899 19.958 92.271 20.7026 91.5038 21.2892C90.7366 21.8646 89.7946 22.1523 88.6777 22.1523C87.7752 22.1523 86.9629 21.9549 86.2408 21.56C85.5301 21.1539 84.9716 20.5841 84.5655 19.8508C84.1706 19.1175 83.9732 18.2713 83.9732 17.3124C83.9732 16.3421 84.1706 15.4904 84.5655 14.757C84.9603 14.0237 85.5131 13.4596 86.2239 13.0648C86.9347 12.6699 87.7526 12.4725 88.6777 12.4725C89.569 12.4725 90.3643 12.6643 91.0638 13.0478C91.7746 13.4314 92.3217 13.9786 92.7053 14.6893C93.1002 15.3888 93.2976 16.1955 93.2976 17.1093ZM90.8438 16.4324C90.8325 15.8232 90.6125 15.3381 90.1838 14.977C89.7551 14.6047 89.2305 14.4186 88.61 14.4186C88.0234 14.4186 87.527 14.5991 87.1208 14.9601C86.7259 15.3098 86.4834 15.8006 86.3931 16.4324H90.8438Z" fill="white"/>
<path d="M2.4895 23.9737H4.03418C4.03418 23.9737 4.29131 23.346 3.4632 23.0889C2.63508 22.8318 1.51581 22.3572 1.15374 21.15C1.15374 21.15 1.02518 21.0697 0.647042 19.8625C0.647042 19.8625 0.590321 19.5486 0.855961 19.3075L1.78145 18.2941C1.78145 18.2941 1.92608 17.9964 2.56986 18.0446L5.12794 18.0389C5.12794 18.0389 5.57886 18.0767 5.97307 18.4303C5.97307 18.4303 7.19633 19.3794 7.42889 19.7339C7.42889 19.7339 7.54989 19.9674 7.3646 20.4098L6.75297 21.9866C6.75297 21.9866 6.17348 22.4536 5.61857 22.6701C5.61857 22.6701 4.43595 23.1929 4.52481 23.5871C4.52481 23.5871 4.46809 23.8764 4.65338 23.9737L8.24188 24.0219C8.24188 24.0219 9.38006 23.8244 9.83288 23.0161C9.83288 23.0161 10.1165 22.7448 9.95955 20.8258C9.80263 18.9067 9.8272 15.4128 9.8272 15.4128C9.8272 15.4128 9.554 15.1878 11.0665 14.2216C11.0665 14.2216 11.9835 13.5136 12.3702 13.5779C12.3702 13.5779 12.9695 13.2404 13.2351 12.5238L13.6331 11.5019C13.6331 11.5019 11.3199 11.4896 11.2518 12.52L9.7478 14.527L8.75803 13.0059C8.75803 13.0059 8.63703 12.8046 8.21068 12.8008L6.32001 12.8206C6.32001 12.8206 5.78495 12.8972 4.65905 14.4495L4.89255 12.5181C4.89255 12.5181 5.00126 12.0275 4.34992 11.8942L3.1588 11.4234C3.1588 11.4234 3.09074 13.0447 3.81865 13.6081C3.81865 13.6081 4.26484 13.9418 4.43028 13.974L3.37245 15.5546L1.84384 17.8876C1.84384 17.8876 0.636643 14.9713 0.60072 14.7179C0.60072 14.7179 0.165865 12.9804 0.0420262 12.1797C-0.0827583 11.379 0.11009 10.1406 0.11009 10.1406C0.11009 10.1406 1.011 5.01595 6.27274 2.89178C6.27274 2.89178 17.2472 2.79535 17.5525 2.97213C17.8578 3.14891 18.1641 3.47127 18.1641 3.47127L21.3981 0.574756C21.3981 0.574756 23.216 -0.857429 25.0027 0.799746C26.7894 2.45692 25.6304 4.75787 25.6304 4.75787C25.6304 4.75787 25.049 6.04825 22.7802 7.12688C22.7802 7.12688 25.8856 10.0395 24.824 15.2851C23.7624 20.5308 21.8954 22.9443 21.8954 22.9443C21.8954 22.9443 17.7765 29.0265 10.4388 32.9525C10.4388 32.9525 6.76999 30.056 6.06193 28.1256L9.11915 28.0935C9.11915 28.0935 17.7756 21.3032 18.6132 16.0253C18.6132 16.0253 20.0936 10.7797 19.4176 9.39569C19.4176 9.39569 18.0337 17.8271 14.4612 21.3674C14.4612 21.3674 10.0522 26.806 8.53966 27.0309L5.71594 27.047C5.71594 27.047 5.28959 27.047 4.95116 26.6122C4.95116 26.6122 2.94799 24.9314 2.4895 23.9737Z" fill="white"/>
<path d="M2.01686 6.33024C2.01686 6.33024 4.43314 3.59538 6.36446 2.98942C6.36446 2.98942 3.94251 0.67807 2.01686 1.70754C0.0912049 2.73701 2.01686 6.33024 2.01686 6.33024Z" fill="white"/>
</svg>
