<svg width="67" height="68" viewBox="0 0 67 68" fill="none" xmlns="http://www.w3.org/2000/svg">
<path d="M33.5 6.0835C18.1459 6.0835 5.58337 18.646 5.58337 34.0002C5.58337 49.3543 18.1459 61.9168 33.5 61.9168C48.8542 61.9168 61.4167 49.3543 61.4167 34.0002C61.4167 18.646 48.8542 6.0835 33.5 6.0835ZM33.5 56.3335C21.1888 56.3335 11.1667 46.3114 11.1667 34.0002C11.1667 21.6889 21.1888 11.6668 33.5 11.6668C45.8113 11.6668 55.8334 21.6889 55.8334 34.0002C55.8334 46.3114 45.8113 56.3335 33.5 56.3335ZM46.3138 21.661L27.9167 40.0581L20.6863 32.8556L16.75 36.7918L27.9167 47.9585L50.25 25.6252L46.3138 21.661Z" fill="white"/>
</svg>
